<svg xmlns="http://www.w3.org/2000/svg" id="Layer_1" viewBox="0 0 31.8 24.4"><style>.st0{fill:#999999;}</style><path d="M2.4 22.5l-2.4-5h3L4.7 21l1.4-3.6h1.2l-2.1 5v2H2.4v-1.9zm6.9-3.3l-.8-1.8h2.9l3.4 7h-3.1l-.5-1.1H8.5L8 24.4H6.8l2.5-5.2zm1.4 3l-.9-1.9-.8 1.9h1.7zm5-4.8h4c.5 0 1 .1 1.4.2.4.1.7.3 1 .5.3.2.5.4.6.7.1.3.2.6.2.9 0 .4-.1.8-.3 1.1-.2.3-.5.6-.9.8l1.5 2.9h-3.1L19 21.9h-.6v2.5h-2.7v-7zm2.9 3.6c.2 0 .4 0 .6-.1.2-.1.3-.2.4-.3.1-.1.2-.3.3-.4.1-.2.1-.3.1-.5s0-.4-.1-.5c-.1-.2-.2-.3-.3-.4-.1-.1-.3-.2-.4-.3-.2-.1-.4-.1-.6-.1h-.2V21h.2zm5.6-3.6h2.9c.8 0 1.5.1 2.1.2.6.2 1.1.4 1.5.7.4.3.7.7.9 1.1.2.4.3.9.3 1.5 0 .5-.1 1-.3 1.4-.2.4-.5.8-.9 1.1-.4.3-.9.6-1.5.8-.6.2-1.3.3-2.1.3h-2.9v-7.1zm2.7 6c.3 0 .6 0 .9-.1.3-.1.5-.2.6-.5.2-.2.3-.5.4-.8.1-.3.1-.7.1-1.1 0-.4 0-.8-.1-1.1-.1-.3-.2-.6-.4-.8-.2-.2-.4-.3-.6-.4-.3-.1-.5-.1-.8-.1l-.1 4.9zM0 14.1c0-.3.1-.6.2-.9.1-.3.3-.5.6-.8.3-.2.6-.4 1-.5.4-.1.9-.2 1.5-.2.4 0 .7 0 1 .1.3.1.6.2.7.3.2.1.3.3.4.4.1.2.1.3.1.5 0 .1 0 .3-.1.4-.1.1-.1.2-.2.3l-.3.3h-.5l-1.2-1.6c-.1.1-.2.2-.2.3-.1.1-.1.2-.2.4-.1.1-.1.3-.1.5v.6c0 .3 0 .5.1.7 0 .1.1.3.2.4.1.1.3.2.4.3.2.1.3.1.5.1h.3c.1 0 .2 0 .3-.1.1 0 .2-.1.2-.1.1 0 .1-.1.2-.1l.4.7c-.1.1-.2.1-.4.2-.1.1-.3.1-.5.1s-.3.1-.5.1h-.7c-.6 0-1.1-.1-1.5-.2-.4-.1-.8-.3-1-.5-.3-.2-.5-.5-.6-.8 0-.2-.1-.5-.1-.9zm16.9-6.5c-.1-.3-.4-.5-.7-.4-.3 0-.5.1-.6.4 0 0 0 .1-.1.1-.5-.3-1-.4-1.5-.3l.3-.3c.1.1.3.2.6.1s.5-.2.5-.6V5.4c-.4 0-.8.1-1.1.1-.4.1-.6.4-.6.7 0 .2.2.4.4.5-.2.2-.4.4-.7.5-.4.1-.9.2-1.3.3 0-.2.1-.3.3-.3.5-.1.7-.6.4-1-.1-.1-.1-.2-.2-.3-.1-.2-.3-.3-.4-.5-.2.1-.3.3-.5.4l-.3.3c-.4.4-.4.6-.3.9.1.2.3.3.5.3 0 .3-.2.6-.5.8 0-.2.1-.3.1-.5-.2.1-.4.1-.5.4-.1.3-.3.5-.4.8-.1.2-.3.4-.4.6.1-.3.2-.6.3-1 .3-.8.6-1.6.9-2.3.1-.3.3-.7.7-.8.1-.1.3-.1.4-.1v.1c0 .6.5.9 1.1.6.1 0 .2-.1.3-.2l.3-.3c.1-.1.3-.1.4-.2-.1-.2-.2-.3-.3-.5-.2-.2-.3-.4-.6-.5-.4-.3-.9 0-1 .4 0 .1-.1.2-.2.2h-.3c.2-.2.3-.3.4-.5l.5-.5c.2-.2.5-.3.8-.2v.2c0 .5.3.8.8.7.2 0 .3 0 .5-.1.3-.1.6-.3.9-.4-.1-.1-.2-.2-.3-.4-.2-.2-.3-.5-.5-.7-.3-.3-.8-.3-1 .1-.2 0-.2 0-.2.1h-.4c0-.2.1-.4.1-.5.2 0 .3 0 .5-.1.4-.1.6-.6.4-1-.1-.1-.2-.3-.2-.4-.1-.1-.2-.3-.2-.5-.3.2-.7.3-1.1.6-.6.3-.4 1.1.1 1.3.1 0 .1.1.1.2 0 .4-.3.8-.6 1.1 0-.2-.1-.4-.1-.7-.2 0-.3.1-.4.1 0 .2.1.4.1.6 0 .2 0 .3-.1.4-.3.3-.5.7-.8 1.1-.1-.2-.1-.3.1-.5.4-.3.4-.8 0-1.1-.1-.1-.2-.1-.3-.2-.2-.1-.3-.2-.5-.3-.2.3-.3.6-.5.9-.3.6.1 1.1.7 1 0 .1.1.2.1.3v.2c-.3.9-.6 1.7-1 2.6 0 0 0 .1-.1.1V6.7c0-.2 0-.4.2-.5.1-.2.2-.3.2-.5v-.3l-.3.3h-.1V4.2c0-.2 0-.3.1-.5.2-.3.4-.6.7-.9 0 0 .1-.1.2-.1.3.4.7.5 1.1.3.2-.1.3-.3.4-.5.1-.2.1-.4.1-.6 0-.1.1-.3.1-.4-.4 0-.9-.1-1.3-.1-.3 0-.6.3-.6.7v.5c-.4.2-.6.4-.9.8v-1h.3c.3-.1.5-.4.5-.7 0-.3-.1-.6-.4-.8 0-.3-.1-.5-.2-.6L9.5 0h-.1c0 .1-.1.2-.2.3-.1.2-.3.4-.5.6-.3.3-.3.7-.1 1 .2.3.4.3.7.4v1.2c-.2-.3-.4-.5-.7-.7l-.1-.1c-.1-.1-.1-.2 0-.3.1-.4-.1-.8-.5-.9-.4-.1-.8-.1-1.2-.2 0 .5 0 .9.1 1.4.1.4.8.6 1.2.2 0 0 0-.1.1-.1l1 1c0 .1.1.2.1.3v1.6c-.1-.1-.3-.2-.4-.4h-.1c0 .3-.1.5.1.8.1.1.2.3.2.5V8c-.3-.6-.5-1.3-.9-2.1-.1-.3-.1-.6 0-.9.3.1.5 0 .7-.2.1-.2.1-.4 0-.6 0-.2-.1-.4-.2-.5-.1-.2-.2-.4-.3-.5l-.6.3c-.2.2-.4.4-.4.6-.1.3 0 .5.2.6.2.2.2.3.2.5-.2-.1-.3-.3-.4-.5-.1-.1-.2-.3-.3-.4-.3-.3-.3-.6-.2-1v-.2c-.1 0-.2-.1-.3-.1 0 .2-.1.4-.1.7-.3-.3-.6-.6-.7-1.1 0 0 0-.1.1-.1.4-.2.5-.5.5-.9 0-.2-.1-.3-.3-.4-.1-.1-.2-.1-.3-.2-.2-.1-.3-.1-.4-.2C5.2.7 5.1.7 5 .6c0 .4-.2.7-.4 1-.2.4 0 .9.5 1h.4c0 .2.1.3.1.5h-.3L5.2 3c-.2-.1-.3-.3-.6-.3s-.5.1-.7.3c-.1.2-.3.4-.4.6-.1.2-.2.3-.3.4.4.1.8.4 1.3.5.6.1.9-.2.9-.8v-.1c.3 0 .5 0 .7.2.3.4.7.7 1 1.1-.1 0-.3-.1-.4-.1-.2-.5-.4-.6-.8-.7-.2 0-.4.1-.5.2-.1.1-.2.3-.4.4-.1.2-.3.3-.4.5.3 0 .5.3.7.4.2.2.4.3.7.3.4 0 .6-.2.7-.5v-.3c.5 0 .9.3 1.1.8.5 1.1.9 2.2 1.2 3.4-.3-.5-.5-1-.8-1.5l-.1-.1c-.1 0-.2-.1-.4-.1 0 .2.1.4.1.5-.2-.1-.4-.4-.4-.7.4-.1.6-.3.5-.8 0-.2-.2-.3-.3-.5l-.2-.2c-.2-.1-.3-.2-.4-.3l-.6.6c-.1.2-.2.3-.2.6 0 .4.2.6.5.6.2 0 .3.1.3.3-.4-.1-.9-.2-1.3-.4-.3 0-.5-.2-.7-.4l.1-.1c.4-.3.4-.9-.1-1.1-.1-.1-.3-.1-.5-.1-.3-.1-.5-.1-.8-.1v1c0 .6.5.9 1 .6h.1l.2.2c-.3 0-.5 0-.8.1-.2.1-.4.2-.7.3-.2-.4-.4-.5-.7-.5-.2 0-.4.1-.5.3-.2.2-.3.5-.5.8 0 .1-.1.2-.1.2v.1c.2.1.4.2.7.2.2.2.5.2.7.2.4-.1.6-.5.5-.9V8c.5-.3 1.1-.3 1.7-.3 0 .1-.1.2-.2.3h-.2c-.2-.1-.4-.1-.6 0-.2.1-.4.3-.4.6 0 .4.1.9.3 1.3.4-.1.8-.2 1.1-.6.4-.3.4-.9 0-1.2.2-.3.5-.4.8-.3.5.2.9.3 1.3.4-.2.1-.3.2-.4.3l-.1-.1c-.5-.3-1 0-1 .5 0 .3.1.7.1 1v.3c.4-.1.8-.2 1.1-.3.4-.2.7-.7.2-1.2.3-.2.5-.2.7.1.6.6.9 1.4.9 2.3v.7h1.2v-.6c0-.8.2-1.5.7-2.2l.3-.3c.2-.2.4-.1.6 0-.2.3-.3.5-.2.8.1.2.3.4.6.5.3.1.6.1.9.2 0-.4.1-.9.1-1.3 0-.5-.5-.8-1-.5-.1 0-.1.1-.2.1-.1-.1-.2-.1-.4-.2.5-.2.9-.3 1.3-.4.3-.1.5.1.7.3-.4.4-.3.9.1 1.3.2.2.7.4 1.1.5.1-.4.3-.8.3-1.2 0-.5-.3-.8-.8-.7-.3 0-.4 0-.6-.2 0 0-.1 0-.1-.1.6 0 1.2.1 1.8.3v.2c0 .5.4.9 1 .8.2 0 .3-.1.5-.2s.3-.1.5-.2v-.1c-.1-.4-.3-.7-.4-1z" class="st0"/><path d="M7.7 15.5c.6-.1 1-.4 1-1 .1-.4.1-.9.1-1.3v-1.5c-.3 0-.5.1-.8.1-.3.2-.7.4-1 .6-.3.2-.5.5-.7.8-.1.3-.2.6-.2 1s.1.7.2 1c0 .1.1.2.1.2.5.1.9.2 1.3.1zm2.2.8l-.2-.2c-.1-.1-.2-.2-.2-.3-.1.2-.3.4-.4.5-.1.1-.1.2-.2.3h1.2c0-.1-.1-.2-.2-.3zm-1.1-.4c-.1 0-.1 0-.1.1-.2.1-.5.3-.7.4h.2c.1 0 .2.1.4.1 0-.1.1-.3.2-.4-.1-.1-.1-.1 0-.2zm2.3-.4c.3.1.6.1.9 0 .2 0 .3-.1.5-.1 0-.1.1-.1.1-.2.2-.3.2-.6.2-1s-.1-.7-.2-1c-.2-.3-.4-.6-.7-.8-.3-.2-.6-.4-1.1-.5-.2-.1-.5-.1-.8-.1 0 .9.1 1.8.1 2.7.2.5.5.8 1 1zm-.8.4c0 .1.1.1.1.2.1.1.2.3.2.4.1 0 .2 0 .4-.1.1 0 .1 0 .2-.1-.2-.1-.3-.1-.5-.2-.2 0-.3-.1-.4-.2zm3.5-4.1h2.6V15c0 .1.1.2.1.2 0 .1.1.1.2.1h.2c.1 0 .2 0 .3-.1.1 0 .2-.1.3-.2v-3.3h2.6v4.7h-2.3l-.2-.7c-.3.3-.6.5-.9.6-.3.1-.7.2-1 .2-.6 0-1-.2-1.3-.5-.3-.3-.5-.8-.5-1.4v-2.8zm7.6 0h2.3l.2.7c.2-.1.3-.2.5-.3.2-.1.3-.2.5-.2.2-.1.3-.1.4-.1h.4c.2 0 .4 0 .5.1.2.1.3.1.4.2.1.1.2.2.3.4.1.1.1.3.1.5s0 .3-.1.5c-.1.1-.2.3-.3.4-.1.1-.3.2-.5.2-.2.1-.4.1-.7.1l-.9-1.3c-.1 0-.2 0-.3.1-.1 0-.2.1-.3.2v3.3h-2.6v-4.8zm6.6.8h-.5v-.8h.5v-1.6h2.6v1.6h1.2l-.5.8h-.8v2.1c0 .3.1.6.2.7.1.2.3.3.6.3l-.3.6c-.2.1-.3.1-.5.2-.2 0-.4.1-.6.1-.3 0-.6 0-.9-.1-.2-.1-.4-.2-.6-.4-.2-.2-.3-.4-.3-.6 0-.2-.1-.5-.1-.8v-2.1z" class="st0"/></svg>