<svg xmlns="http://www.w3.org/2000/svg" id="Layer_1" viewBox="0 0 24.4 24.4"><style>.st0{fill:#999999;}</style><path d="M2.8 6.3c.2-.2.5-.4.7-.6.2-.2.3-.4.5-.6H1.2V7c.2-.1.5-.2.8-.3.3-.1.5-.3.8-.4zm9 1.9H9.7V7l.9-.3c.3-.1.5-.3.8-.4.2-.2.5-.4.7-.6.2-.2.3-.4.5-.6H7v15c1.9 1.3 3.7 2.3 4.8 2.9V8.2zm8.5 9.5V8.2h-2.2V7l.9-.3c.3-.1.5-.3.8-.4.2-.2.5-.4.7-.6.2-.2.3-.4.5-.6h-5.4v16.3c.7-.4 1.4-.9 2.1-1.4 1-.8 1.9-1.6 2.6-2.3zm-17-.8V8.2H1.2v4c0 1.3.6 2.6 1.7 4 .1.3.2.5.4.7zm16-14.2l-.4-.8-.3.8z" class="st0"/><path d="M0 0v12.2C0 19 12.2 24.4 12.2 24.4S24.4 19 24.4 12.2V0H0zm21.9.8l.7 1.4.6-1.4h.5l-.9 2v.8h-1.2v-.8l-1-2h1.3zm-2.3 0L21 3.5h-1.3l-.2-.4h-1.1l-.2.4h-.5l1.1-2.1-.3-.7h1.1zm-5.1 0l.5 1.8.3-1.1-.2-.7h1.2l.5 1.8.5-1.8h.5l-.9 2.8H16l-.4-1.3-.4 1.3h-.9L13.4.8h1.1zM9.8.8H11V2h.8V.8h1.1v2.8h-1.1V2.4H11v1.2H9.8V.8zm-3.6 1c0-.1.1-.2.2-.3l.3-.3c0-.1.2-.2.3-.3.1-.1.3-.1.4-.1.2 0 .3-.1.5-.1h.3c.1 0 .2 0 .3.1.1 0 .2.1.3.1.1 0 .1 0 .2.1l-.2.3c-.1 0-.2-.1-.3-.1h-.3c-.1 0-.3 0-.4.1-.1 0-.2.1-.3.2 0 0 0 .1-.1.2 0 .1-.1.3-.1.4 0 .1 0 .3.1.4 0 .1.1.2.2.3.1.2.2.2.3.3.1 0 .2.1.4.1v-1h1.1l-.2.3v.8s-.1.1-.2.1-.2.1-.3.1c-.1 0-.2 0-.4.1h-.4c-.3 0-.5 0-.7-.1l-.6-.3c-.1-.2-.2-.3-.3-.5-.1-.2-.1-.3-.1-.5v-.4zM4.5.8h1.1v2.8H4.5V.8zM.8.8h1.1V2h.8V.8h1.1v2.8H2.7V2.4h-.8v1.2H.8V.8zm23.3 11.4c0 1.4-.6 3-1.8 4.5-1 1.3-2.4 2.5-4.1 3.8-2.6 1.9-5.2 3.2-5.9 3.5-.7-.3-3.3-1.6-5.9-3.5-1.7-1.3-3.1-2.5-4.1-3.8C1.1 15.2.5 13.6.5 12.2V4.3h23.7v7.9z" class="st0"/></svg>