<svg xmlns="http://www.w3.org/2000/svg" id="Layer_1" viewBox="0 0 51.1 19.5"><style>.st0{fill:#999999;} .st1{fill-rule:evenodd;clip-rule:evenodd;fill:#999999;}</style><path d="M12.1 8.7c0-.3.1-.6.2-.8.1-.2.3-.5.5-.6.2-.2.5-.3.9-.4.3-.1.7-.2 1.1-.2.4 0 .8 0 1.2.1.4.1.7.2.9.4 0-.3 0-.5-.1-.7-.1-.2-.2-.4-.3-.5-.1-.1-.3-.2-.5-.3-.2-.1-.4-.1-.7-.1-.2 0-.5 0-.8.1-.3 0-.5.1-.7.2l-.4-.8c.4-.2.9-.3 1.3-.4.5-.1.9-.1 1.4-.1.6 0 1.2.1 1.7.2s.9.3 1.2.5c.3.2.6.5.8.9.2.4.3.8.3 1.3v3.1h-3l-.2-.6c-.1.1-.3.2-.4.3-.2.1-.3.2-.5.2-.2.1-.4.1-.6.1-.2 0-.4.1-.7.1-.4 0-.7-.1-1.1-.2-.3-.1-.6-.2-.8-.4-.2-.2-.4-.4-.5-.6-.2-.2-.2-.5-.2-.8zm3.3-.1c0 .2.1.4.2.5.1.1.3.2.6.2.1 0 .3 0 .4-.1.1 0 .2-.1.3-.2V8c-.2-.1-.4-.2-.7-.2-.3 0-.5.1-.6.2-.1.2-.2.4-.2.6zm5.7-3.9H24l.3.9c.2-.2.4-.3.6-.4l.6-.3c.2-.1.4-.1.5-.2.2 0 .4-.1.5-.1.3 0 .5 0 .7.1.2.1.4.2.5.3.1.1.3.3.3.5.1.2.1.4.1.6 0 .2 0 .4-.1.6 0 .1-.1.3-.3.4-.2.1-.4.2-.7.3-.3.1-.6.1-.9.1L25 6.1c-.1 0-.2 0-.4.1-.1 0-.3.1-.3.2v4.2h-3.2V4.7zm7.8-4h3.2v6.4l2.4-2.5h1.8l-1.9 1.9 2.9 4h-3.6l-1.6-2.3v2.3h-3.2V.7zm8.3 6.9c0-.3.1-.7.2-.9.1-.3.3-.5.4-.8.2-.2.4-.4.7-.6.2-.1.5-.3.8-.4l.9-.3c.3-.1.7-.1 1-.1.4 0 .8 0 1.2.1.4.1.7.2 1 .4.3.2.5.3.7.5.2.2.4.4.5.7.3.3.4.6.4.8.1.2.1.5.1.7l-4.5.5c.1.4.3.8.5 1 .3.2.6.4 1.1.4.3 0 .5 0 .7-.1.2-.1.4-.1.5-.2l.5.8c-.1.1-.3.1-.5.2s-.4.1-.6.2c-.2.1-.4.1-.7.1h-.8c-.7 0-1.3-.1-1.9-.3-.5-.2-1-.4-1.3-.7-.3-.3-.6-.6-.8-1 0-.2-.1-.6-.1-1zm5-.5c0-.5-.1-.9-.2-1.1-.1-.2-.3-.4-.6-.4-.1 0-.3 0-.4.1 0 .1-.1.2-.2.3-.1.1-.1.3-.2.5 0 .2-.1.5-.1.8l1.7-.2zm4.1-1.4h-.7v-1h.7v-2h3.2v2h1.6l-.6 1h-1v2.7c0 .4.1.7.3.9.2.2.4.3.8.3l-.4.8c-.2.1-.4.2-.7.2-.2.1-.5.1-.8.1-.4 0-.8-.1-1.1-.2-.3-.1-.6-.3-.8-.5-.2-.2-.3-.5-.4-.7-.1-.3-.1-.6-.1-1V5.7zm-34.2 6.2h3.6c.7 0 1.2.1 1.7.2s.9.3 1.2.5c.3.2.5.5.7.8.2.3.2.7.2 1 0 .3-.1.7-.2 1-.1.3-.4.6-.6.8-.3.2-.7.4-1.1.6-.5.1-1 .2-1.6.2h-1v2.5h-2.9v-7.6zm2.9 4c.2 0 .4 0 .6-.1.2-.1.3-.2.5-.3.1-.1.2-.3.3-.4.1-.2.1-.4.1-.6 0-.2 0-.4-.1-.6-.1-.2-.2-.3-.3-.4-.1-.1-.3-.2-.5-.3-.2-.1-.4-.2-.6-.2v2.9zm5.5-4h2.9v6.4h2.9v1.2h-5.8v-7.6zm9.7 1.9l-.9-1.9h3.1l3.7 7.5h-3.3l-.6-1.2h-3l-.5 1.2h-1.3l2.8-5.6zm1.5 3.3l-.9-2.1-.9 2.1h1.8zm4.6-1.4c0-.4 0-.7.1-1 .1-.3.2-.6.4-.9.2-.3.4-.5.7-.8l.9-.6c.3-.2.7-.3 1.1-.4.4-.1.8-.1 1.3-.1.3 0 .6 0 .9.1.3 0 .5.1.8.2.2.1.5.1.7.2l.6.3-.4.8c-.2-.1-.4-.2-.6-.2-.5-.2-.8-.3-1.1-.3-.3 0-.7.1-1 .2-.3.1-.6.3-.8.5-.2.2-.4.5-.5.8-.1.3-.2.7-.2 1.1 0 .4.1.8.2 1.1.1.3.3.6.5.8.2.2.5.4.8.5.3.1.6.2 1 .2.2 0 .5 0 .7-.1.2-.1.5-.1.7-.2l.4.8c-.2.1-.3.2-.5.3-.2.1-.4.2-.7.2-.2.1-.5.1-.8.2-.3 0-.6.1-.8.1-.7 0-1.3-.1-1.9-.3-.6-.2-1-.5-1.4-.8-.4-.4-.7-.8-.9-1.2-.1-.5-.2-1-.2-1.5zm8.4-3.8H51v1.2h-3.4v2h2.6v1.2h-2.6v2H51v1.2h-6.3v-7.6z" class="st0"/><g id="hH8vTJ_2_"><path d="M6.2 0v3.3c0 .4 0 .5.5.9-.3-.1-.6-.2-.8-.2-.3 0-.5 0-.8.1.3-.2.5-.5.5-.8 0-1.5 0-.5-.1-2V0h.7zm5.5 11.3c-.3-.4-.5-.8-.8-1.2-.1-.2-.2-.4-.2-.6-.1-.3-.1-.5-.1-.8.4.3.8.7 1 1.2.2.5.2.9.1 1.3v.1zm-11.6 0c-.1-.3-.1-.5-.1-.7 0-.6.3-1.2.9-1.7.1 0 .1 0 .1-.1.1 0 .1-.1.2-.1 0 .5 0 .9-.4 1.4-.2.4-.5.8-.7 1.2zm3-3.9c-.2-.3-.4-.5-.6-.8-.1-.1 0-.2 0-.3 0-.3.2-.6.5-.9 1 .2 1 1 .1 2zm5.5 0c-.8-1-.9-1.8.3-2 .3.4.5.7.5 1.1 0 .1-.1.2-.1.2-.3.2-.5.5-.7.7zm-4.1.1c-.5-.7-.4-1.7 1.1-2 .2.5.2.9-.3 1.3-.3.2-.6.4-.8.7zm4.8-2.1c1.4.2 2.3 1.5 2.2 2.5-.4-.4-.9-.8-1.3-1.2-.3-.2-.5-.4-.6-.5-.1-.3-.2-.5-.3-.8zm-6.8 0c-.1.2-.2.5-.3.7-.2.4-.7.7-1.1 1.1-.2.2-.5.4-.8.7 0-.4 0-.9.5-1.5.4-.5 1-.9 1.7-1zm3.6.1c1.5.2 1.7 1.2 1.2 2-.3-.4-.7-.7-1.1-.9-.1-.1-.1-.3-.1-.4-.1-.2 0-.5 0-.7zm-1.9.6c-.3-.4-.4-.8-.1-1.2.2-.4.9-.6 1.5-.6.2.4.1.7-.4 1-.3.2-.7.5-1 .8zm6.8 0c-.5-.4-1-.7-1.5-1-.6-.3-.8-.7-.9-1l.1-.1c.7 0 1.5.3 1.9.9.3.4.4.8.4 1.2zm-3.4 0l-1.2-.9C6 5 6 4.7 6.1 4.3h.2c.9 0 1.5.6 1.5 1.1 0 .2 0 .5-.2.7zm-6.8 0c0-.5.2-1 .7-1.5.4-.4 1.1-.6 1.6-.6.1 0 .1.1.1.1-.1.4-.4.7-1 1-.4.3-.9.6-1.4 1zM7 8.8l-.6-.6C6.1 8 6 7.8 6 7.5v-.6c1.4.3 1.4 1.3 1 1.9zM5.7 6.9c.1.4.2.8-.2 1.2-.3.2-.5.5-.7.7-.5-.6-.4-1.6.9-1.9zm3.9.1c.2.4.5.9.3 1.2-.1.2-.3.3-.4.5-.1 0-.2.1-.3.2-.5-.8-.7-1.8.4-1.9zM2.5 8.9l-.6-.6c-.1-.1-.1-.3-.1-.5s.2-.5.3-.8c1.1.1 1 1 .4 1.9zm9.1.7c-.3-.4-.7-.8-1-1.2-.2-.2-.3-.4-.4-.6-.1-.2-.1-.5-.2-.8 1.3.5 1.9 1.7 1.6 2.6z" class="st1"/><path d="M.1 9.6C-.1 8.8.4 7.5 1.7 7c-.1.5-.2 1-.8 1.6-.2.3-.5.6-.8 1zM6 8.3c1 .3 1.1 1.2.8 1.9-.2-.3-.5-.5-.7-.8-.1-.2-.1-.5-.1-.8v-.3zm-1.1 1.9c-.3-.8-.1-1.7.8-1.9.1.4.1.8-.2 1.2-.2.3-.4.5-.6.7zm5.3-1.6c.2.5.3 1 .1 1.3l-.6.6c-.5-.9-.5-1.8.5-1.9zm-8.1 1.9c-.2-.2-.4-.4-.6-.7-.2-.1-.1-.3-.1-.6 0-.2.1-.4.2-.6.9.1.9.9.5 1.9zm-1 1.6c-.2-.3-.3-.6-.4-.9-.1-.2 0-.5.1-.8l.4-.4c.4.1.5.5.3 1-.1.4-.3.8-.4 1.1zm4.8-.8c-.1-.3-.2-.6-.4-.8-.1-.3-.1-.5.1-.8.1-.1.2-.2.2-.3.2.2.5.5.4.8 0 .2-.1.3-.2.4.1.3 0 .5-.1.7zm4.7.8c-.1-.4-.3-.8-.4-1.2-.1-.3-.1-.6.1-.7.1-.1.2-.1.2-.2.2.2.3.4.4.6.1.2.2.5.1.6 0 .4-.2.6-.4.9zM4.4 3.9c-.5-.1-.9-.1-1.4-.1h.1c.4-.2.8-.4 1-.7.3-.4.7-.8 1.1-1.1l.2-.2c0 .3.1.5-.2.7-.3.1-.4.3-.6.5-.4.3-.4.6-.2.9zm2-2.1l.5.5c.3.2.6.5.8.7.2.3.5.5.9.7l.1.1c-.5 0-.9 0-1.4.1v-.1c.1-.2 0-.5-.2-.7-.1-.2-.2-.5-.5-.6-.2-.3-.2-.5-.2-.7zM3.7 5.5c-.2-.2-.5-.4-.4-.7 0-.2.2-.4.4-.6l.2-.1c.2.1.5.1.7.2-.7.3-.9.7-.9 1.2zm4.4 0c-.1-.5-.2-.9-1-1.2.2-.1.4-.2.7-.3 0 0 .1 0 .2.1.4.4.6.7.3 1 0 .2-.1.3-.2.4z" class="st1"/></g></svg>