<svg xmlns="http://www.w3.org/2000/svg" id="Layer_1" viewBox="0 0 58.7 19.2"><style>.st0{fill:#999999;}</style><path d="M36.5 11.7l.9 1.9-2.7 5.6H36l.5-1.2h2.9l.6 1.2h3.3l-3.6-7.4h-3.2zm.5 5.1l.9-2 .9 2H37zm14.4-1.3h-2.9V18c-.3 0-.7-.1-.9-.2-.3-.1-.5-.3-.8-.5-.2-.2-.4-.5-.5-.8-.1-.3-.2-.7-.2-1.1 0-.4.1-.8.2-1.1.1-.3.3-.6.5-.8.2-.2.5-.4.8-.5.3-.1.6-.2 1-.2.3 0 .5 0 .7.1.2.1.5.1.6.2l.4-.8c-.2-.1-.3-.2-.5-.3-.2-.1-.4-.2-.7-.2-.2-.1-.5-.1-.8-.2-.3 0-.5-.1-.8-.1-.5 0-.9 0-1.3.1s-.8.2-1.1.4l-.9.6c-.3.2-.5.5-.6.8-.2.3-.3.6-.4.9-.1.3-.1.7-.1 1 0 .5.1 1 .3 1.5.2.5.5.9.9 1.2.4.3.8.6 1.4.8.5.2 1.2.3 1.8.3.4 0 .7 0 1-.1.3 0 .6-.1.9-.2.3-.1.6-.2.8-.2l.6-.3v-2l.6-.8zm7.3-2.7v-1.1h-6.3v7.4h6.3V18h-3.4v-2h2.5v-1.2h-2.5v-2zM31.5 12l.8.8.8-.8.8.8.2-.2c-.3-.4-.7-.8-1.1-1.3-.3-.3-.6-.7-1-1.1l-.4.2h-.1c.4.4.7.8 1.1 1.2l-.5.5-.8-.8-.3.3-.5.5-.5-.5-.3-.3-.3.3-.4.6-.5-.5-.3-.3-.8.8-.8-.8-.8.8-.8-.8-.3.3-.5.5-.5-.5-.7-.3-.3.3-.5.5-.5-.5-.3-.3-.8.8-.6-.5-.3-.3-.3.3-.5.5-.5-.5-.4-.3-.3.3-.5.5-.8-.8-.4.3-.5.5-.5-.5-.4-.4-.8.8-.8-.8-.8.8-.3-.3-.2-.2-.3-.3-.3.3-.5.5-.5-.5-.3-.3-.3.3-.5.5-.8-.8-1.2.9-.8-.8-.8.8-.8-.8-.8.8-.8-.8-.8.8-.5-.5C4.9 7.7 11.9.5 17.1.5c3 0 6.5 2.3 9.7 5.1.1-.1.3-.2.4-.2C23.3 1.8 19.9 0 17.1 0 14 0 9.9 2.4 5.1 7.1c-1.6 1.5-2.9 3-4 4.3-.4.5-.8.9-1.1 1.3l.2.2.9-.9.8.8.9-.8.8.8.8-.8.8.8.6-.6V19h11.3v-3s.3-.8 1.3-1.7c1-.9 1.6-1.1 1.6-1.1V19h7.4v-1h-2.8v-5.8l.2-.2.8.8.8-.8.8.8.8-.8.2.2v6.9H34V18h-2.8v-5.7l.3-.3zm-18.6 0l.8.8.8-.8.2.2-1.4 4.2-1.3-3.6.9-.8zm-4.2.9l2.4 5.8H6.3v-6.4l.7.6.8-.9.9.9m5.2 5.8l2.3-6.5.1-.1.4.4v6.2h-2.8zm6.6-5.8l.8-.8.3.3v6.3h-1.2v-5.8z" class="st0"/><path d="M24.1 10.4l1.8-5h-1.1l-1.1 3.1-1-3.1h-2.9l.5 1.3-.7 2-1.2-3.3h-2.8l1.9 5H20l.8-2.3.9 2.3h1.4zm9.9-.7c.3.2.7.4 1.1.6.4.1 1 .2 1.6.2h.7c.2 0 .4-.1.6-.1.2 0 .3-.1.5-.1.1-.1.3-.1.4-.2l-.4-.7c-.1.1-.3.1-.4.2-.2.1-.4.1-.6.1-.4 0-.7-.1-.9-.3-.2-.2-.4-.5-.4-.9l3.6-.5c0-.2 0-.4-.1-.6-.1-.2-.1-.4-.3-.6-.1-.2-.3-.4-.4-.6-.2-.2-.4-.3-.6-.5-.2-.1-.5-.2-.8-.3-.3-.1-.6-.1-1-.1-.3 0-.6 0-.8.1-.3 0-.5.1-.8.2-.3.1-.5.2-.7.4-.2.1-.4.3-.6.5-.2.2-.3.4-.4.6-.1.2-.1.5-.1.8 0 .3.1.7.2 1 .1.3.3.6.6.8zM36 7c0-.2.1-.3.2-.4.1-.1.1-.2.2-.2.1-.1.2-.1.3-.1.2 0 .4.1.5.3.1.2.2.5.2.9l-1.4.2c-.1-.3-.1-.5 0-.7zm-9.5-.5c-.2.2-.3.4-.4.6-.1.3-.1.5-.1.8 0 .3.1.7.2 1 .1.3.4.6.6.8.3.2.7.4 1.1.6.4.1 1 .2 1.6.2h.7c.2 0 .4-.1.6-.1.2 0 .3-.1.5-.1.1-.1.6-.2.7-.3l-.7-.6c-.1.1-.3.1-.4.2-.2.1-.4.1-.6.1-.4 0-.7-.1-.9-.3-.2-.2-.4-.5-.4-.9l3.6-.5c0-.2 0-.4-.1-.6-.1-.2-.1-.4-.3-.6-.1-.2-.3-.4-.4-.6-.2-.2-.4-.3-.6-.5-.2-.1-.5-.2-.8-.3-.3-.1-.6-.1-1-.1-.3 0-.6 0-.8.1-.3 0-.5.1-.8.2-.3.1-.5.2-.8.4-.2.1-.4.3-.5.5zm2.3.5c0-.2.1-.3.2-.4.1-.1.1-.2.2-.2.1-.1.2-.1.3-.1.2 0 .4.1.5.3.1.2.2.5.2.9l-1.4.2V7z" class="st0"/></svg>